HIERARCHY
ROOT RootJoint
{
    OFFSET   0.000000   0.000000   0.000000
    CHANNELS 6 Xposition Yposition Zposition Xrotation Yrotation Zrotation
    JOINT pelvis_lowerback
    {
        OFFSET   0.000000   0.093605   0.000000
        CHANNELS 3 Xrotation Yrotation Zrotation
        JOINT lowerback_torso
        {
            OFFSET   0.000000   0.100000   0.000000
            CHANNELS 3 Xrotation Yrotation Zrotation
            JOINT torso_head
            {
                OFFSET   0.000000   0.282350   0.000000
                CHANNELS 3 Xrotation Yrotation Zrotation
                End Site
                {
                    OFFSET   0.000000   0.192650   0.000000
                }
            }
            JOINT rTorso_Clavicle
            {
                OFFSET  -0.001000   0.157500   0.000000
                CHANNELS 3 Xrotation Yrotation Zrotation
                JOINT rShoulder
                {
                    OFFSET  -0.117647   0.000000   0.000000
                    CHANNELS 3 Xrotation Yrotation Zrotation
                    JOINT rElbow
                    {
                        OFFSET  -0.245000   0.000000   0.000000
                        CHANNELS 3 Xrotation Yrotation Zrotation
                        JOINT rWrist
                        {
                            OFFSET  -0.240000   0.000000   0.000000
                            CHANNELS 3 Xrotation Yrotation Zrotation
                            End Site
                            {
                                OFFSET  -0.116353  -0.002500   0.000000
                            }
                        }
                    }
                }
            }
            JOINT lTorso_Clavicle
            {
                OFFSET   0.001000   0.157500   0.000000
                CHANNELS 3 Xrotation Yrotation Zrotation
                JOINT lShoulder
                {
                    OFFSET   0.117647   0.000000   0.000000
                    CHANNELS 3 Xrotation Yrotation Zrotation
                    JOINT lElbow
                    {
                        OFFSET   0.245000   0.000000   0.000000
                        CHANNELS 3 Xrotation Yrotation Zrotation
                        JOINT lWrist
                        {
                            OFFSET   0.240000   0.000000   0.000000
                            CHANNELS 3 Xrotation Yrotation Zrotation
                            End Site
                            {
                                OFFSET   0.116353  -0.002500   0.000000
                            }
                        }
                    }
                }
            }
        }
    }
    JOINT rHip
    {
        OFFSET  -0.100000  -0.051395   0.000000
        CHANNELS 3 Xrotation Yrotation Zrotation
        JOINT rKnee
        {
            OFFSET   0.000000  -0.410000   0.000000
            CHANNELS 3 Xrotation Yrotation Zrotation
            JOINT rAnkle
            {
                OFFSET   0.000000  -0.390000   0.000000
                CHANNELS 3 Xrotation Yrotation Zrotation
                JOINT rToeJoint
                {
                    OFFSET   0.000000  -0.050000   0.130000
                    CHANNELS 3 Xrotation Yrotation Zrotation
                    End Site
                    {
                        OFFSET  -0.010000   0.002000   0.060000
                    }
                }
            }
        }
    }
    JOINT lHip
    {
        OFFSET   0.100000  -0.051395   0.000000
        CHANNELS 3 Xrotation Yrotation Zrotation
        JOINT lKnee
        {
            OFFSET   0.000000  -0.410000   0.000000
            CHANNELS 3 Xrotation Yrotation Zrotation
            JOINT lAnkle
            {
                OFFSET   0.000000  -0.390000   0.000000
                CHANNELS 3 Xrotation Yrotation Zrotation
                JOINT lToeJoint
                {
                    OFFSET   0.000000  -0.050000   0.130000
                    CHANNELS 3 Xrotation Yrotation Zrotation
                    End Site
                    {
                        OFFSET   0.010000   0.002000   0.060000
                    }
                }
            }
        }
    }
}
MOTION
Frames: 15
Frame Time:   0.008333
 -2.376719   0.925631   3.975860   0.000000   0.000000   0.000000   0.000000   0.000000   0.000000   0.000000   0.000000   0.000000   0.000000   0.000000   0.000000   0.000000   0.000000   0.000000   0.000000   0.000000   0.000000   0.000000   0.000000   0.000000   0.000000   0.000000   0.000000   0.000000   0.000000   0.000000   0.000000   0.000000   0.000000   0.000000   0.000000   0.000000   0.000000   0.000000   0.000000   0.000000   0.000000   0.000000   0.000000   0.000000   0.000000   0.000000   0.000000   0.000000   0.000000   0.000000   0.000000   0.000000   0.000000   0.000000   0.000000   0.000000   0.000000   0.000000   0.000000   0.000000   0.000000   0.000000   0.000000
 -2.376470   0.926237   3.976107  -0.130230   0.012926   0.066491   0.078866   0.034888  -0.021449   0.145979  -0.139517  -0.029042  -0.128171   0.111047   0.034327   0.236290  -0.313030   0.336104   0.614362   0.184998   2.103559   0.017253   0.801892  -0.006696   0.233013  -0.207538  -2.881811   0.293444   0.339709  -0.457213   0.781022   0.061984  -2.042194   0.019128  -0.879276   0.009070   0.281411   0.103959   2.942010  -0.085728   0.050549  -0.208290   0.864203   0.001074   0.000468  -0.896033  -0.203819   0.047976  -0.274560  -0.000224   0.000334   0.025127  -0.227553   0.004081   0.475285  -0.000297  -0.000889  -0.765541   0.090299   0.007214   0.290474  -0.000194  -0.000316
 -2.376156   0.927269   3.976562  -0.287359   0.036194   0.141079   0.140130   0.057936  -0.033664   0.310330  -0.283358  -0.060810  -0.234724   0.215637   0.072642   0.467537  -0.619658   1.397637   1.210978   0.393516   4.787787   0.039479   1.572681  -0.011376   0.500075  -0.200521  -5.042593   0.584849   0.671192  -1.664937   1.550730   0.096851  -4.690228   0.043641  -1.718540   0.015565   0.606313   0.008305   5.145561  -0.122326   0.096282  -0.523069   1.787744   0.002816   0.000861  -1.733057  -0.398244   0.088434  -0.570693  -0.000697   0.000584   0.094267  -0.451211   0.077821   0.984019  -0.000917  -0.001588  -1.484624   0.173810   0.014756   0.508906  -0.000451  -0.000475
 -2.375823   0.928306   3.977173  -0.432279   0.059569   0.212896   0.174869   0.075377  -0.039355   0.452984  -0.422292  -0.090016  -0.332242   0.313007   0.111578   0.690304  -0.903331   2.903326   1.786400   0.625524   7.852679   0.060898   2.291665  -0.014162   0.760723  -0.150762  -6.359013   0.865620   0.972061  -3.322228   2.307446   0.093291  -7.733100   0.067268  -2.501712   0.019719   0.924255  -0.125300   6.482265  -0.133552   0.137426  -0.909006   2.674603   0.004716   0.001040  -2.513395  -0.581553   0.122767  -0.846349  -0.001236   0.000743   0.175202  -0.658362   0.222957   1.473410  -0.001691  -0.002024  -2.156099   0.252595   0.023132   0.700692  -0.000736  -0.000553
 -2.375489   0.929044   3.977900  -0.559127   0.076284   0.279721   0.187435   0.090167  -0.041499   0.569819  -0.554021  -0.116233  -0.424432   0.403848   0.149572   0.907271  -1.164392   4.659756   2.342083   0.885130  11.173265   0.079074   2.960928  -0.015584   1.009195  -0.096642  -7.043679   1.136431   1.243954  -5.226943   3.054101   0.045978 -11.038874   0.087343  -3.231846   0.022183   1.228905  -0.264565   7.174669  -0.129674   0.174727  -1.346531   3.510918   0.006511   0.001001  -3.241971  -0.754030   0.151882  -1.104737  -0.001767   0.000847   0.260125  -0.849739   0.429961   1.934953  -0.002492  -0.002273  -2.783453   0.327004   0.032286   0.869819  -0.001006  -0.000588
 -2.375182   0.929252   3.978713  -0.669417   0.083742   0.342596   0.182580   0.103854  -0.045023   0.664112  -0.677347  -0.146654  -0.511485   0.488540   0.187785   1.119821  -1.406141   6.540975   2.878140   1.173150  14.666127   0.093117   3.583313  -0.016062   1.244137  -0.048804  -7.295500   1.398176   1.492041  -7.269042   3.774351  -0.044418 -14.449401   0.102691  -3.912231   0.023360   1.518908  -0.401513   7.396257  -0.115093   0.208716  -1.821226   4.296580   0.008060   0.000796  -3.922405  -0.916123   0.176479  -1.346729  -0.002242   0.000914   0.346991  -1.026875   0.687972   2.368697  -0.003247  -0.002393  -3.369556   0.397131   0.042020   1.019647  -0.001235  -0.000597
 -2.374946   0.928751   3.979583  -0.766234   0.083100   0.403793   0.164421   0.117721  -0.057476   0.740235  -0.791306  -0.192622  -0.593238   0.567359   0.227333   1.329038  -1.632566   8.466164   3.394077   1.488635  18.276692   0.102956   4.161474  -0.015908   1.465264  -0.012278  -7.259633   1.652400   1.722016  -9.389581   4.441748  -0.170189 -17.788309   0.112947  -4.546087   0.023501   1.793974  -0.534312   7.257087  -0.092029   0.239773  -2.320367   5.034051   0.009283   0.000494  -4.557892  -1.068313   0.197144  -1.572804  -0.002628   0.000951   0.434685  -1.191184   0.987861   2.776268  -0.003922  -0.002418  -3.917024   0.463071   0.052127   1.153063  -0.001419  -0.000589
 -2.374739   0.926771   3.979946  -0.683098   0.020774   0.494034   0.108802   0.169002  -0.069032   0.734836  -0.881650  -0.309412  -0.833227   0.513841   0.185600   1.606706  -1.712560   9.727986   4.060066   1.839743  21.795159   0.112985   4.880509  -0.018531   1.618307  -0.049136  -6.060585   1.951406   1.943329 -10.669593   4.893424  -0.349130 -21.067322   0.121422  -5.302389   0.023747   1.945818  -0.659570   6.028290  -0.229781   0.033560  -2.808051   5.320143   0.008356  -0.000413  -4.761128  -1.321661   0.389985  -1.462835  -0.001892   0.000262   0.366202  -1.195645   1.206925   2.815000  -0.003245  -0.001950  -4.239685   0.481187   0.093294   1.303468  -0.001594  -0.000529
 -2.374566   0.923555   3.979965  -0.574754  -0.072528   0.583188   0.105797   0.233210  -0.085379   0.729359  -0.948885  -0.424826  -1.072585   0.458693   0.131018   1.846303  -1.726247  10.709389   4.648108   2.240662  24.949209   0.115930   5.569777  -0.020389   1.785493   0.006174  -4.923365   2.218502   2.113858 -11.623858   5.295907  -0.555348 -23.969149   0.122324  -6.020923   0.023686   2.093024  -0.853482   4.925875  -0.424855  -0.171157  -3.248046   5.503345   0.007197  -0.000892  -4.950000  -1.562244   0.568558  -1.334983  -0.001310  -0.000393   0.242946  -1.194217   1.382963   2.779590  -0.002511  -0.001537  -4.543103   0.498239   0.131873   1.445559  -0.001650  -0.000510
 -2.374409   0.919242   3.979784  -0.468925  -0.174522   0.665277   0.143889   0.300878  -0.100013   0.743669  -1.002221  -0.528301  -1.292957   0.407086   0.075850   2.050197  -1.702066  11.487494   5.164020   2.665462  27.791601   0.114164   6.224229  -0.021471   1.953984   0.119068  -4.019535   2.456313   2.247479 -12.354721   5.654330  -0.775557 -26.561148   0.118443  -6.697808   0.023257   2.236983  -1.073975   4.091673  -0.639512  -0.361863  -3.638356   5.645689   0.006101  -0.001139  -5.126962  -1.787466   0.734459  -1.217804  -0.000897  -0.000849   0.095447  -1.194294   1.524990   2.722611  -0.001894  -0.001186  -4.827295   0.513473   0.167783   1.575206  -0.001612  -0.000501
 -2.374243   0.919553   3.979965  -0.472971  -0.052313   0.699098   0.219875   0.286574  -0.068159   0.802418  -1.109891  -0.608541  -1.484142   0.356189   0.023372   2.243247  -1.678972  12.442014   5.624624   3.080348  30.475010   0.111148   6.823922  -0.021761   2.112337   0.175617  -3.373824   2.654222   2.327498 -13.258488   5.963223  -1.023556 -29.007127   0.113994  -7.328681   0.022014   2.376103  -1.257391   3.529545  -0.816522  -0.415298  -3.714299   6.042468   0.005029  -0.000770  -5.118292  -1.834188   1.086922  -0.990594  -0.001327  -0.000678  -0.057951  -1.159397   1.491286   2.976529  -0.001509  -0.000584  -4.637139   0.570252   0.108618   1.786881  -0.001192   0.000003
 -2.374024   0.919903   3.980292  -0.432402   0.004172   0.765908   0.248393   0.323335  -0.069371   0.835873  -1.181141  -0.684081  -1.662982   0.311300  -0.025540   2.425314  -1.658642  13.174854   6.036888   3.491784  32.968631   0.105747   7.394280  -0.021446   2.266200   0.281927  -2.630685   2.849407   2.421030 -13.928813   6.249146  -1.257638 -31.267166   0.107171  -7.925074   0.020329   2.509316  -1.487589   2.884952  -0.984079  -0.582814  -3.831923   6.323912   0.004107  -0.000947  -5.163533  -2.034898   1.233725  -0.867999  -0.001159  -0.000890  -0.135136  -1.153114   1.406817   3.085304  -0.001189  -0.000406  -4.786341   0.580491   0.137279   1.946591  -0.000969   0.000109
 -2.373783   0.920206   3.980623  -0.359449   0.041382   0.830058   0.267596   0.372727  -0.066132   0.852278  -1.231571  -0.751199  -1.835859   0.269950  -0.071919   2.588012  -1.632363  13.767711   6.402499   3.892462  35.236058   0.098725   7.929286  -0.020744   2.413680   0.403525  -1.988134   3.035549   2.515973 -14.457893   6.511530  -1.474325 -33.313376   0.098810  -8.479362   0.018486   2.634191  -1.706782   2.346241  -1.156329  -0.748938  -3.948501   6.545340   0.003349  -0.001047  -5.224952  -2.226796   1.368087  -0.762569  -0.001002  -0.001017  -0.208363  -1.153294   1.322473   3.131845  -0.000943  -0.000310  -4.958654   0.587120   0.167534   2.064101  -0.000784   0.000134
 -2.373596   0.920493   3.980873  -0.301286   0.040086   0.854137   0.392600   0.422438  -0.091085   0.795180  -1.224102  -0.728233  -1.955462   0.199503  -0.129415   2.670142  -1.708306  13.955689   6.720055   4.315029  36.980618   0.091010   8.581329  -0.020182   2.513713   0.553158  -0.662268   3.199222   2.656689 -14.600911   6.649499  -1.684255 -35.000792   0.091697  -9.235592   0.016589   2.719416  -1.838109   1.274951  -1.259993  -0.937065  -4.016060   6.654503   0.002697  -0.001031  -5.371937  -2.288016   1.480123  -0.559102  -0.000935  -0.001264  -0.203595  -1.121977   1.287665   3.039271  -0.000765  -0.000271  -4.980679   0.621959   0.177983   2.162988  -0.000624   0.000163
 -2.373434   0.920765   3.981020  -0.213449   0.017508   0.868078   0.518896   0.474432  -0.120663   0.732925  -1.208944  -0.704480  -2.063201   0.133669  -0.178086   2.716074  -1.759598  13.857596   6.993536   4.719953  38.408319   0.080903   9.200694  -0.019286   2.607746   0.767463   0.381702   3.331318   2.772417 -14.483622   6.761803  -1.884706 -36.396818   0.081951  -9.953006   0.014846   2.798767  -2.037895   0.455992  -1.372351  -1.113881  -4.070186   6.704592   0.002164  -0.000917  -5.533992  -2.344885   1.583134  -0.377909  -0.000863  -0.001415  -0.214778  -1.092173   1.264130   2.913737  -0.000624  -0.000222  -5.018059   0.655047   0.188784   2.263719  -0.000496   0.000165
